<?xml version="1.0" ?><svg viewBox="0 0 24 24" xmlns="http://www.w3.org/2000/svg"><defs><style>.cls-1{fill:none;}.cls-2{fill:#f74f4f;}.cls-3{fill:#fff;}.cls-4{fill:#d13131;}</style></defs><title/><g data-name="Layer 2" id="Layer_2"><g data-name="Layer 3" id="Layer_3"><rect class="cls-1" height="24" width="24"/><path class="cls-2" d="M1,12C1,4,4,1,12,1S23,4,23,12,20,23,12,23,1,20,1,12"/><path class="cls-3" d="M15.84,9.33a3.84,3.84,0,0,0-7.68,0,1.34,1.34,0,0,0,0,.2c.12,2.84,2.69,4.18,3.56,8.73a.28.28,0,0,0,.54,0c.87-4.55,3.44-5.89,3.56-8.73A1.34,1.34,0,0,0,15.84,9.33Z"/><path class="cls-4" d="M12,7.54a1.79,1.79,0,1,1-1.8,1.79A1.8,1.8,0,0,1,12,7.54Z"/></g></g></svg>